<?xml version="1.0" encoding="utf-8"?>
<!-- Generator: Adobe Illustrator 23.0.1, SVG Export Plug-In . SVG Version: 6.00 Build 0)  -->
<svg version="1.1" id="Layer_1" xmlns="http://www.w3.org/2000/svg" xmlns:xlink="http://www.w3.org/1999/xlink" x="0px" y="0px"
	 viewBox="0 0 10.7 15.2" style="enable-background:new 0 0 10.7 15.2;" xml:space="preserve">
<g>
	<g>
		<path d="M3.2,9.6h0.5V9.4H3.2V9.6z M3.7,8.2H3.2v0.2h0.5C3.7,8.4,3.7,8.2,3.7,8.2z M3.2,9h0.5V8.8H3.2V9z M2.4,10.4h2.2v0.7H4V11
			H3v0.2H2.4V10.4z M3,7.4h1l0.4,2.9H2.6L3,7.4z M2.7,6.6H3v0.2v0.1h0.3V6.5h0.3v0.3h0.3V6.6h0.3v0.7H2.7V6.6L2.7,6.6z"/>
	</g>
	<g>
		<path d="M3.2,1.8C3,2.1,2.7,3,3.9,3.5C3,3.6,2.4,3.3,2.4,2.6C2.3,1.9,3.2,1.8,3.2,1.8 M5,1.3C4.9,1.6,4.8,2,4.8,2.4
			c0,0.5,0.1,0.9,0.3,1.1C4.3,3.5,3.7,3,3.7,2.4C3.7,1.9,4.3,1.4,5,1.3 M5.6,1.3c0.7,0.1,1.3,0.5,1.3,1.1c0,0.6-0.6,1.1-1.4,1.1
			c0.2-0.2,0.3-0.6,0.3-1.1C5.8,2,5.7,1.6,5.6,1.3 M7.4,1.8c0,0,0.9,0.1,0.9,0.9c0,0.6-0.7,1-1.5,0.8C7.9,3,7.7,2.1,7.4,1.8
			 M2.9,3.7c-0.2,0-0.3,0-0.5,0.1c0,0.2-0.1,0.5-0.1,0.7c1-0.1,2.1-0.2,3.1-0.2c1,0,2,0.1,3,0.2C8.3,4.3,8.2,4,8.2,3.8
			c-0.1,0-0.3-0.1-0.5-0.1c0.7-0.2,1.1-0.6,1.1-1.1c0-0.6-0.5-1.1-1.7-1.2c-0.4-0.3-1-0.5-1.5-0.5c0.1-0.1,0.2-0.2,0.2-0.4
			C5.8,0.2,5.6,0,5.3,0S4.8,0.2,4.8,0.5c0,0.2,0.1,0.3,0.2,0.4c-0.5,0-1.1,0.2-1.5,0.5C2.3,1.5,1.8,2,1.8,2.6
			C1.8,3.1,2.2,3.6,2.9,3.7"/>
	</g>
	<g>
		<path d="M7.9,6.6c0-0.1-0.1-0.1-0.2-0.2c0,0,0,0.1,0,0.1c0,0.1,0,0.1,0,0.2C7.8,6.7,7.9,6.6,7.9,6.6"/>
	</g>
	<g>
		<path d="M7.7,6.7c0,0,0-0.1,0-0.2c0-0.1,0-0.1,0-0.1c-0.1,0-0.2,0.1-0.2,0.2C7.4,6.6,7.5,6.7,7.7,6.7"/>
	</g>
	<g>
		<path d="M7.5,6.7C7.3,6.6,7.3,6.5,7.4,6.5c0,0-0.1,0-0.1,0.1C7.2,6.7,7.3,6.7,7.5,6.7"/>
	</g>
	<g>
		<path d="M7.5,7v0.1C7.6,7.1,7.7,7,7.8,7C7.7,7,7.6,7,7.5,7"/>
	</g>
	<g>
		<path d="M8.4,9.7c-0.2,0.1-0.3,0.7,0,0.7c0,0,0.1-0.1,0.1-0.1l0,0c0.1,0.4-0.1,0.5-0.2,0.7c0,0.1,0,0.2-0.1,0.3c0,0,0-0.1-0.1,0
			C8,11.3,8,11.6,7.9,11.6c-0.1,0-0.1,0-0.2,0c0,0,0,0.1,0,0.1l0,0c0-0.1,0-0.3,0-0.3c-0.1,0.1,0,0.1,0,0.2c-0.1,0-0.1,0-0.1,0
			c0,0,0,0,0,0.1c0,0,0,0,0,0c0-0.1,0-0.3,0-0.4c0,0,0,0,0,0c0,0,0,0,0,0c0,0.1,0,0.1,0,0.2c0,0,0,0,0,0c0,0,0,0,0-0.1c0,0,0,0,0,0
			c0,0,0,0,0,0.1c0,0,0,0,0,0c0-0.1,0-0.1,0-0.1c0-0.1,0.1-0.2,0.1-0.2c0,0,0,0,0,0c0,0-0.1,0.1-0.1,0.1c0,0,0-0.1,0-0.1
			c0,0,0,0-0.1,0v0c0-0.1,0.1,0,0.1-0.1c0,0,0,0,0.1-0.1c0.1,0,0.2,0.1,0.3,0.1c0.2,0,0.3-0.3,0.4-0.5c0,0-0.1,0-0.1,0
			c0,0.1-0.1,0.1-0.2,0.1c0-0.2-0.1-0.3-0.1-0.5s0-0.4,0-0.6C7.5,9.5,7.4,9.3,7.2,9.2c-0.1,0-0.2,0-0.3,0c0,0,0,0,0,0.1
			c0,0.1,0.1,0.1,0.1,0.1c0,0,0,0,0,0.1c-0.1,0-0.2,0.1-0.3,0c-0.2,0.2,0,0.3-0.2,0.5c0,0,0,0,0,0c0,0,0-0.1,0-0.1c0,0-0.1,0-0.1,0
			C6.3,10,6.3,10.1,6.2,10l-0.1,0.1c0-0.1,0-0.2,0-0.2c0,0,0.1-0.1,0.1-0.1c0,0,0,0,0,0c0,0,0,0,0,0c0,0-0.1,0.1-0.1,0.1
			c0,0,0,0,0,0c0,0,0,0,0-0.1c0,0,0,0,0,0v0C5.9,9.7,6,9.6,6,9.5c0.1,0,0.1,0,0.2,0c0,0,0,0,0,0c0,0-0.1,0-0.2,0c0,0,0-0.1,0-0.1
			c0,0,0,0-0.1,0c0,0,0,0,0-0.1c0.1,0,0.1,0,0.2,0c0.1,0,0.1,0.1,0.1,0.1c0.1,0,0.3-0.3,0.3-0.4C6.5,9,6.4,8.9,6.4,8.7
			C6.7,8.6,6.8,8.1,7.1,8c0.2-0.1,0.4,0,0.4-0.3c-0.1,0-0.1,0-0.1,0.2C7.3,7.7,7.3,7.6,7.3,7.5c0,0,0,0,0,0c0,0.1,0.1,0.1,0.1,0.1
			c0.1-0.1,0-0.3-0.1-0.3c-0.1,0-0.1,0.1-0.1,0.1C7.2,7.3,7.2,7.1,7.2,7c0,0,0.1,0,0.1,0v0c0,0-0.1,0-0.1,0c0,0,0,0,0-0.1
			c0.3-0.1,1-0.3,1,0.7c0,0-0.1,0-0.1,0c0.1,0.2,0,0.4,0,0.6c0,0,0,0,0,0c0,0,0,0-0.1-0.1c0,0.2-0.1,0.4-0.3,0.5
			C8,8.9,8.3,9.2,8.4,9.3S8.7,10,8.9,9.7C9,9.5,8.4,9,8.3,8.5c0-0.4,0.4-1.3-0.1-1.7c0.1,0,0.4,0.1,0.4,0.5C8.7,7.1,8.9,7,9,7
			C8.9,7.1,8.8,7.3,8.8,7.4C8.7,7.8,8.6,8.3,8.6,8.5c0,0.1,0,0.2,0,0.3C8.8,8.6,9,8.5,8.9,8.6C8.9,8.6,8.8,8.8,8.8,9
			C8.9,8.8,9,8.7,9,8.8C8.9,8.9,8.9,9,8.8,9.2C8.9,9,9.1,8.9,9.1,8.9C9,9,9,9.2,8.9,9.3C9,9.5,9.1,9.6,9.1,9.7
			C9.1,10.2,8.5,10.1,8.4,9.7 M7.1,10.9c0-0.1,0-0.1,0-0.1c-0.1,0-0.1,0.1-0.2,0.1c-0.1,0-0.1,0-0.1,0c0,0,0,0.1,0,0.1c0,0,0,0,0,0
			c0-0.1,0-0.2,0-0.3c0,0,0,0,0,0c0,0.1,0,0.1-0.1,0.2c0,0,0,0-0.1-0.1c0,0-0.1,0-0.1,0v0c0-0.2,0.1-0.2,0.1-0.3c0,0,0,0,0,0
			c0,0-0.1,0.1-0.1,0.1c0-0.1,0-0.1,0-0.1c0,0,0,0-0.1,0v0c0-0.1,0.2-0.1,0.3-0.1v0c0,0,0,0,0,0c0,0-0.1,0-0.1,0v0c0,0,0,0,0-0.1
			c0,0,0,0,0-0.1v0c0.2,0,0.2,0.1,0.3,0.2c0.1,0.1,0.3,0.1,0.4,0c0,0,0,0,0,0C7.1,10.3,7,10.1,7,9.9c-0.1,0-0.1-0.1-0.2-0.2
			c0.3,0,0.3-0.5,0.6-0.2C7.5,9.6,7.6,9.7,7.6,9.8c0,0.1,0,0.1,0,0.2c-0.1-0.1-0.2-0.1-0.2,0c-0.1,0.2,0.2,0.5,0.3,0.6v0
			c-0.2,0.2-0.2,0.1-0.4,0.2C7.2,10.8,7.2,10.9,7.1,10.9 M6.1,7.7c0,0,0.1,0.1,0.1,0.1c0,0,0,0,0,0v0C6.2,7.8,6.2,7.7,6.1,7.7
			c0-0.1,0-0.2,0-0.2v0c0.1,0,0.2,0.1,0.2,0.1c0,0,0,0.1,0,0.1c0,0,0,0,0,0v0c0,0,0-0.1,0-0.1c0,0,0-0.1,0-0.1
			c0.2,0.1,0,0.3,0.1,0.5c0,0.1,0.2,0.2,0.2,0.3C6.7,8.4,6.6,8.5,6.6,8.6c0,0,0,0,0,0C6.5,8.5,6.4,8.4,6.3,8.3c0,0,0,0,0,0
			c0,0,0,0.1-0.1,0.1c-0.1,0-0.1,0-0.2,0v0c0.2-0.2,0-0.4,0-0.5c0,0,0,0-0.1-0.1C6,7.7,6.1,7.7,6.1,7.7 M7.1,7.3
			C6.9,7.6,7.3,7.4,7.4,7.4c0,0,0.1,0,0.1,0v0c-0.2,0-0.2,0.2-0.4,0.2C6.9,7.6,7,7.3,7.1,7.3 M7.4,6.4c0.1-0.1,0.2-0.1,0.2-0.1
			c0,0,0,0,0-0.1c0,0,0-0.1,0.1-0.1c0,0,0.1,0,0.1,0.1c0,0,0,0,0,0.1c0.1,0,0.2,0,0.2,0.1c0.2,0,0.3,0.1,0.3,0.2
			c0,0.1-0.1,0.2-0.2,0.2c0,0,0,0.1,0,0.1c-0.1,0-0.2,0-0.3,0c-0.1,0-0.3,0-0.3,0c0,0,0-0.1,0-0.1c-0.1,0-0.2-0.1-0.2-0.2
			C7.1,6.5,7.2,6.4,7.4,6.4 M10.4,10.6c0,0-0.6-3.7-0.9-5.4C8.2,5,6.8,4.9,5.4,4.9c0,0-0.1,0-0.1,0v9.4c-1.8-1.2-3.6-2.4-3.9-2.6
			c-0.2-0.1-0.3-0.3-0.3-0.4c-0.1-0.2,0-0.3,0-0.5c0-0.1,0.7-4,1-5.6c-0.3,0-0.5,0.1-0.8,0.1c-0.3,1.7-1,5.3-1,5.4
			c0,0.2-0.1,0.5,0,0.9c0.1,0.2,0.3,0.4,0.5,0.7c0.4,0.3,3.4,2.3,4.3,2.9l0.2,0.1l0.2-0.1c0.2-0.1,3.8-2.6,4.3-2.9
			c0.3-0.2,0.4-0.4,0.5-0.7C10.5,11.1,10.5,10.8,10.4,10.6"/>
	</g>
	<g>
		<path d="M8.2,6.6C8.2,6.5,8,6.5,8,6.5c0,0,0.1,0.2-0.1,0.2C8.1,6.7,8.2,6.7,8.2,6.6"/>
	</g>
</g>
</svg>
